<svg xmlns="http://www.w3.org/2000/svg" xmlns:xlink="http://www.w3.org/1999/xlink" width="267" zoomAndPan="magnify" viewBox="0 0 200.25 129.749996" height="173" preserveAspectRatio="xMidYMid meet" version="1.0"><defs><g/><clipPath id="407444d861"><path d="M 41.828125 15 L 83 15 L 83 75 L 41.828125 75 Z M 41.828125 15 " clip-rule="nonzero"/></clipPath><clipPath id="e012ba21af"><path d="M 79 0.117188 L 119 0.117188 L 119 89.648438 L 79 89.648438 Z M 79 0.117188 " clip-rule="nonzero"/></clipPath></defs><path fill="#325456" d="M 78.164062 73.011719 C 77.527344 73.011719 76.898438 72.796875 76.398438 72.398438 L 44.191406 47.058594 C 43.5 46.515625 43.101562 45.699219 43.101562 44.820312 C 43.101562 43.941406 43.5 43.125 44.191406 42.574219 L 76.398438 17.242188 C 76.898438 16.84375 77.527344 16.628906 78.164062 16.628906 C 79.042969 16.628906 79.863281 17.023438 80.402344 17.714844 C 80.875 18.3125 81.089844 19.0625 80.996094 19.816406 C 80.910156 20.574219 80.523438 21.25 79.925781 21.71875 L 50.574219 44.820312 L 79.925781 67.914062 C 80.523438 68.390625 80.910156 69.066406 80.996094 69.820312 C 81.089844 70.578125 80.875 71.320312 80.402344 71.921875 C 79.863281 72.613281 79.042969 73.011719 78.164062 73.011719 " fill-opacity="1" fill-rule="nonzero"/><g clip-path="url(#407444d861)"><path fill="#325456" d="M 78.164062 15.414062 C 77.253906 15.414062 76.367188 15.71875 75.652344 16.285156 L 43.441406 41.621094 C 42.453125 42.40625 41.890625 43.566406 41.890625 44.820312 C 41.890625 46.074219 42.457031 47.238281 43.441406 48.015625 L 75.652344 73.355469 C 76.359375 73.914062 77.253906 74.226562 78.164062 74.226562 C 79.421875 74.226562 80.589844 73.65625 81.359375 72.671875 C 82.035156 71.820312 82.332031 70.757812 82.207031 69.679688 C 82.074219 68.601562 81.535156 67.632812 80.679688 66.960938 L 52.539062 44.820312 L 80.679688 22.679688 C 81.535156 22.003906 82.074219 21.039062 82.207031 19.960938 C 82.332031 18.882812 82.035156 17.820312 81.359375 16.964844 C 80.589844 15.976562 79.417969 15.414062 78.164062 15.414062 Z M 78.164062 17.84375 C 78.648438 17.84375 79.128906 18.058594 79.449219 18.464844 C 80.015625 19.179688 79.886719 20.210938 79.179688 20.769531 L 48.605469 44.820312 L 79.179688 68.871094 C 79.886719 69.429688 80.015625 70.460938 79.449219 71.171875 C 79.128906 71.582031 78.648438 71.796875 78.164062 71.796875 C 77.808594 71.796875 77.453125 71.683594 77.152344 71.449219 L 44.941406 46.109375 C 44.550781 45.796875 44.316406 45.320312 44.316406 44.820312 C 44.316406 44.316406 44.550781 43.84375 44.941406 43.53125 L 77.152344 18.191406 C 77.449219 17.953125 77.808594 17.84375 78.164062 17.84375 " fill-opacity="1" fill-rule="nonzero"/></g><path fill="#325456" d="M 120.660156 73.011719 C 119.78125 73.011719 118.964844 72.613281 118.414062 71.921875 C 117.445312 70.6875 117.65625 68.890625 118.894531 67.914062 L 148.253906 44.820312 L 118.894531 21.71875 C 117.65625 20.75 117.445312 18.949219 118.414062 17.714844 C 118.964844 17.023438 119.78125 16.628906 120.660156 16.628906 C 121.296875 16.628906 121.921875 16.84375 122.425781 17.242188 L 154.632812 42.574219 C 155.324219 43.125 155.71875 43.941406 155.71875 44.820312 C 155.71875 45.699219 155.324219 46.515625 154.628906 47.058594 L 122.425781 72.398438 C 121.921875 72.796875 121.296875 73.011719 120.660156 73.011719 " fill-opacity="1" fill-rule="nonzero"/><path fill="#325456" d="M 120.660156 15.414062 C 119.40625 15.414062 118.242188 15.976562 117.460938 16.964844 C 116.074219 18.726562 116.378906 21.289062 118.144531 22.679688 L 146.285156 44.820312 L 118.144531 66.960938 C 116.378906 68.347656 116.074219 70.914062 117.460938 72.671875 C 118.242188 73.65625 119.40625 74.226562 120.660156 74.226562 C 121.570312 74.226562 122.457031 73.914062 123.171875 73.355469 L 155.382812 48.015625 C 156.367188 47.238281 156.933594 46.074219 156.933594 44.820312 C 156.933594 43.566406 156.367188 42.40625 155.386719 41.621094 L 123.175781 16.285156 C 122.460938 15.71875 121.570312 15.414062 120.660156 15.414062 Z M 120.660156 17.84375 C 121.015625 17.84375 121.375 17.953125 121.671875 18.191406 L 153.882812 43.53125 C 154.273438 43.84375 154.503906 44.316406 154.503906 44.820312 C 154.503906 45.320312 154.273438 45.796875 153.882812 46.109375 L 121.671875 71.449219 C 121.375 71.683594 121.015625 71.796875 120.660156 71.796875 C 120.175781 71.796875 119.691406 71.582031 119.371094 71.171875 C 118.8125 70.460938 118.933594 69.429688 119.644531 68.871094 L 150.21875 44.820312 L 119.644531 20.769531 C 118.933594 20.210938 118.8125 19.179688 119.371094 18.464844 C 119.691406 18.058594 120.179688 17.84375 120.660156 17.84375 " fill-opacity="1" fill-rule="nonzero"/><path fill="#325456" d="M 83.40625 88.304688 C 83.050781 88.304688 82.707031 88.234375 82.375 88.109375 C 81.667969 87.832031 81.101562 87.296875 80.796875 86.601562 C 80.484375 85.902344 80.472656 85.128906 80.742188 84.421875 L 112.199219 3.160156 C 112.625 2.070312 113.691406 1.335938 114.859375 1.335938 C 115.214844 1.335938 115.5625 1.40625 115.894531 1.53125 C 117.355469 2.101562 118.089844 3.757812 117.519531 5.222656 L 86.070312 86.480469 C 85.644531 87.570312 84.574219 88.304688 83.40625 88.304688 " fill-opacity="1" fill-rule="nonzero"/><g clip-path="url(#e012ba21af)"><path fill="#325456" d="M 114.859375 0.121094 C 113.191406 0.121094 111.667969 1.171875 111.070312 2.722656 L 79.613281 83.980469 C 79.222656 84.996094 79.246094 86.097656 79.683594 87.09375 C 80.125 88.085938 80.921875 88.851562 81.9375 89.242188 C 82.410156 89.425781 82.902344 89.519531 83.40625 89.519531 C 85.074219 89.519531 86.597656 88.472656 87.199219 86.917969 L 118.652344 5.660156 C 119.464844 3.566406 118.421875 1.207031 116.324219 0.398438 C 115.859375 0.214844 115.363281 0.121094 114.859375 0.121094 Z M 114.859375 2.550781 C 115.058594 2.550781 115.257812 2.589844 115.453125 2.664062 C 116.296875 2.988281 116.714844 3.9375 116.390625 4.78125 L 84.933594 86.039062 C 84.683594 86.691406 84.0625 87.089844 83.40625 87.089844 C 83.207031 87.089844 83.007812 87.054688 82.8125 86.976562 C 81.96875 86.652344 81.550781 85.699219 81.878906 84.859375 L 113.332031 3.601562 C 113.585938 2.949219 114.203125 2.550781 114.859375 2.550781 " fill-opacity="1" fill-rule="nonzero"/></g><g fill="#f7f7f7" fill-opacity="1"><g transform="translate(49.364746, 112.621419)"><g><path d="M 12.53125 -10.25 C 12.125 -11.09375 11.539062 -11.742188 10.78125 -12.203125 C 10.019531 -12.660156 9.140625 -12.890625 8.140625 -12.890625 C 7.128906 -12.890625 6.21875 -12.660156 5.40625 -12.203125 C 4.601562 -11.742188 3.96875 -11.082031 3.5 -10.21875 C 3.039062 -9.351562 2.8125 -8.351562 2.8125 -7.21875 C 2.8125 -6.09375 3.039062 -5.097656 3.5 -4.234375 C 3.96875 -3.378906 4.601562 -2.722656 5.40625 -2.265625 C 6.21875 -1.804688 7.128906 -1.578125 8.140625 -1.578125 C 9.546875 -1.578125 10.703125 -1.992188 11.609375 -2.828125 C 12.523438 -3.671875 13.054688 -4.8125 13.203125 -6.25 L 7.453125 -6.25 L 7.453125 -7.78125 L 15.21875 -7.78125 L 15.21875 -6.328125 C 15.101562 -5.140625 14.726562 -4.050781 14.09375 -3.0625 C 13.457031 -2.082031 12.625 -1.304688 11.59375 -0.734375 C 10.5625 -0.160156 9.410156 0.125 8.140625 0.125 C 6.796875 0.125 5.570312 -0.1875 4.46875 -0.8125 C 3.363281 -1.445312 2.488281 -2.320312 1.84375 -3.4375 C 1.207031 -4.550781 0.890625 -5.8125 0.890625 -7.21875 C 0.890625 -8.632812 1.207031 -9.90625 1.84375 -11.03125 C 2.488281 -12.15625 3.363281 -13.03125 4.46875 -13.65625 C 5.570312 -14.28125 6.796875 -14.59375 8.140625 -14.59375 C 9.671875 -14.59375 11.023438 -14.210938 12.203125 -13.453125 C 13.378906 -12.691406 14.238281 -11.625 14.78125 -10.25 Z M 12.53125 -10.25 "/></g></g></g><g fill="#f7f7f7" fill-opacity="1"><g transform="translate(65.46549, 112.621419)"><g><path d="M 10.125 -3.203125 L 3.828125 -3.203125 L 2.671875 0 L 0.6875 0 L 5.90625 -14.34375 L 8.078125 -14.34375 L 13.265625 0 L 11.28125 0 Z M 9.578125 -4.734375 L 6.984375 -12.03125 L 4.375 -4.734375 Z M 9.578125 -4.734375 "/></g></g></g><g fill="#f7f7f7" fill-opacity="1"><g transform="translate(79.413941, 112.621419)"><g><path d="M 8.8125 -7.4375 C 9.34375 -7.351562 9.820312 -7.132812 10.25 -6.78125 C 10.6875 -6.4375 11.03125 -6.007812 11.28125 -5.5 C 11.539062 -4.988281 11.671875 -4.445312 11.671875 -3.875 C 11.671875 -3.144531 11.484375 -2.484375 11.109375 -1.890625 C 10.742188 -1.304688 10.203125 -0.84375 9.484375 -0.5 C 8.773438 -0.164062 7.941406 0 6.984375 0 L 1.59375 0 L 1.59375 -14.4375 L 6.765625 -14.4375 C 7.742188 -14.4375 8.578125 -14.269531 9.265625 -13.9375 C 9.960938 -13.613281 10.484375 -13.175781 10.828125 -12.625 C 11.171875 -12.070312 11.34375 -11.453125 11.34375 -10.765625 C 11.34375 -9.910156 11.109375 -9.203125 10.640625 -8.640625 C 10.179688 -8.085938 9.570312 -7.6875 8.8125 -7.4375 Z M 3.484375 -8.203125 L 6.640625 -8.203125 C 7.523438 -8.203125 8.207031 -8.40625 8.6875 -8.8125 C 9.175781 -9.226562 9.421875 -9.800781 9.421875 -10.53125 C 9.421875 -11.269531 9.175781 -11.84375 8.6875 -12.25 C 8.207031 -12.664062 7.515625 -12.875 6.609375 -12.875 L 3.484375 -12.875 Z M 6.8125 -1.546875 C 7.75 -1.546875 8.476562 -1.765625 9 -2.203125 C 9.53125 -2.648438 9.796875 -3.269531 9.796875 -4.0625 C 9.796875 -4.863281 9.519531 -5.492188 8.96875 -5.953125 C 8.414062 -6.410156 7.675781 -6.640625 6.75 -6.640625 L 3.484375 -6.640625 L 3.484375 -1.546875 Z M 6.8125 -1.546875 "/></g></g></g><g fill="#f7f7f7" fill-opacity="1"><g transform="translate(92.099995, 112.621419)"><g><path d="M 19.734375 -14.4375 L 15.546875 0 L 13.4375 0 L 10.078125 -11.609375 L 6.609375 0 L 4.515625 0.015625 L 0.46875 -14.4375 L 2.484375 -14.4375 L 5.625 -2.1875 L 9.109375 -14.4375 L 11.21875 -14.4375 L 14.53125 -2.234375 L 17.703125 -14.4375 Z M 19.734375 -14.4375 "/></g></g></g><g fill="#f7f7f7" fill-opacity="1"><g transform="translate(112.298349, 112.621419)"><g><path d="M 10.125 -3.203125 L 3.828125 -3.203125 L 2.671875 0 L 0.6875 0 L 5.90625 -14.34375 L 8.078125 -14.34375 L 13.265625 0 L 11.28125 0 Z M 9.578125 -4.734375 L 6.984375 -12.03125 L 4.375 -4.734375 Z M 9.578125 -4.734375 "/></g></g></g><g fill="#f7f7f7" fill-opacity="1"><g transform="translate(126.246799, 112.621419)"><g><path d="M 9.1875 0 L 5.75 -5.90625 L 3.484375 -5.90625 L 3.484375 0 L 1.59375 0 L 1.59375 -14.4375 L 6.25 -14.4375 C 7.34375 -14.4375 8.265625 -14.25 9.015625 -13.875 C 9.765625 -13.5 10.328125 -12.992188 10.703125 -12.359375 C 11.078125 -11.722656 11.265625 -11 11.265625 -10.1875 C 11.265625 -9.1875 10.976562 -8.304688 10.40625 -7.546875 C 9.832031 -6.796875 8.972656 -6.296875 7.828125 -6.046875 L 11.453125 0 Z M 3.484375 -7.40625 L 6.25 -7.40625 C 7.269531 -7.40625 8.035156 -7.65625 8.546875 -8.15625 C 9.054688 -8.664062 9.3125 -9.34375 9.3125 -10.1875 C 9.3125 -11.039062 9.0625 -11.703125 8.5625 -12.171875 C 8.0625 -12.640625 7.289062 -12.875 6.25 -12.875 L 3.484375 -12.875 Z M 3.484375 -7.40625 "/></g></g></g><g fill="#f7f7f7" fill-opacity="1"><g transform="translate(138.829388, 112.621419)"><g><path d="M 3.484375 -12.890625 L 3.484375 -8.078125 L 8.734375 -8.078125 L 8.734375 -6.515625 L 3.484375 -6.515625 L 3.484375 -1.546875 L 9.359375 -1.546875 L 9.359375 0 L 1.59375 0 L 1.59375 -14.453125 L 9.359375 -14.453125 L 9.359375 -12.890625 Z M 3.484375 -12.890625 "/></g></g></g></svg>